<?xml version="1.0" standalone="no"?>
<!DOCTYPE svg PUBLIC "-//W3C//DTD SVG 20010904//EN"
 "http://www.w3.org/TR/2001/REC-SVG-20010904/DTD/svg10.dtd">
<svg version="1.0" xmlns="http://www.w3.org/2000/svg"
 width="256.000000pt" height="256.000000pt" viewBox="0 0 256.000000 256.000000"
 preserveAspectRatio="xMidYMid meet">

<g transform="translate(0.000000,256.000000) scale(0.100000,-0.100000)"
fill="#000000" stroke="none">
<path d="M1270 2266 c-66 -24 -89 -42 -440 -361 -393 -356 -400 -364 -400
-480 0 -94 27 -138 213 -341 185 -203 216 -224 324 -224 86 0 135 29 289 169
l136 124 33 -34 c18 -19 186 -205 374 -414 188 -209 357 -390 374 -403 76 -55
181 24 148 111 -6 14 -182 215 -391 447 -210 231 -380 425 -378 430 2 5 65 66
140 135 153 140 178 176 186 271 7 97 -19 142 -195 336 -179 196 -199 213
-265 233 -62 18 -101 18 -148 1z m130 -223 c83 -80 280 -308 280 -324 0 -10
-3 -24 -6 -32 -7 -19 -658 -609 -685 -621 -12 -6 -29 -6 -44 0 -14 5 -90 81
-169 169 -153 169 -165 191 -128 233 54 63 676 612 693 612 11 0 37 -17 59
-37z"/>
<path d="M283 468 c-30 -15 -56 -72 -48 -107 3 -16 17 -39 31 -52 l26 -24 676
-3 c496 -2 684 1 705 9 64 27 78 109 28 160 l-29 29 -684 -1 c-460 0 -690 -4
-705 -11z"/>
</g>
</svg>
